# xmcd CD database file
#
# Track frame offsets:
#	150
#	22581
#	61897
#	104753
#	134892
#	152303
#	182111
#	210114
#	251450
#
# Disc length: 3715 seconds
#
# Revision: 1
# Processed by: cddbd v1.5.2PL0 Copyright (c) Steve Scherf et al.
# Submitted via: CDex 1.51
#
DISCID=6e0e8109
DTITLE=Lumin - Hadra
DYEAR=2002
DGENRE=New Age
TTITLE0=Stiga
TTITLE1=Zamak
TTITLE2=Hadra
TTITLE3=Garden
TTITLE4=Vchera Minah
TTITLE5=Meta
TTITLE6=Iz Pod Duba
TTITLE7=New Moon, Hilal
TTITLE8=Stojnele' Stokole
EXTD=YEAR: 2002
EXTT0=
EXTT1=
EXTT2=
EXTT3=
EXTT4=
EXTT5=
EXTT6=
EXTT7=
EXTT8=
PLAYORDER=
